<?xml version="1.0" standalone="no"?>
<svg xmlns:xlink="http://www.w3.org/1999/xlink" id="wave" style="transform:rotate(0deg); transition: 0.3s" viewBox="0 0 1440 490" version="1.1" xmlns="http://www.w3.org/2000/svg"><defs><linearGradient id="sw-gradient-0" x1="0" x2="0" y1="1" y2="0"><stop stop-color="rgba(8, 12, 30, 1)" offset="0%"/><stop stop-color="rgba(50, 64, 71, 1)" offset="100%"/></linearGradient></defs><path style="transform:translate(0, 0px); opacity:1" fill="url(#sw-gradient-0)" d="M0,392L48,359.3C96,327,192,261,288,269.5C384,278,480,359,576,351.2C672,343,768,245,864,236.8C960,229,1056,310,1152,326.7C1248,343,1344,294,1440,302.2C1536,310,1632,376,1728,367.5C1824,359,1920,278,2016,261.3C2112,245,2208,294,2304,310.3C2400,327,2496,310,2592,253.2C2688,196,2784,98,2880,49C2976,0,3072,0,3168,65.3C3264,131,3360,261,3456,269.5C3552,278,3648,163,3744,147C3840,131,3936,212,4032,204.2C4128,196,4224,98,4320,73.5C4416,49,4512,98,4608,106.2C4704,114,4800,82,4896,89.8C4992,98,5088,147,5184,204.2C5280,261,5376,327,5472,359.3C5568,392,5664,392,5760,326.7C5856,261,5952,131,6048,89.8C6144,49,6240,98,6336,171.5C6432,245,6528,343,6624,326.7C6720,310,6816,180,6864,114.3L6912,49L6912,490L6864,490C6816,490,6720,490,6624,490C6528,490,6432,490,6336,490C6240,490,6144,490,6048,490C5952,490,5856,490,5760,490C5664,490,5568,490,5472,490C5376,490,5280,490,5184,490C5088,490,4992,490,4896,490C4800,490,4704,490,4608,490C4512,490,4416,490,4320,490C4224,490,4128,490,4032,490C3936,490,3840,490,3744,490C3648,490,3552,490,3456,490C3360,490,3264,490,3168,490C3072,490,2976,490,2880,490C2784,490,2688,490,2592,490C2496,490,2400,490,2304,490C2208,490,2112,490,2016,490C1920,490,1824,490,1728,490C1632,490,1536,490,1440,490C1344,490,1248,490,1152,490C1056,490,960,490,864,490C768,490,672,490,576,490C480,490,384,490,288,490C192,490,96,490,48,490L0,490Z"/><defs><linearGradient id="sw-gradient-1" x1="0" x2="0" y1="1" y2="0"><stop stop-color="rgba(8, 12, 30, 1)" offset="0%"/><stop stop-color="rgba(50, 64, 71, 1)" offset="100%"/></linearGradient></defs><path style="transform:translate(0, 50px); opacity:0.9" fill="url(#sw-gradient-1)" d="M0,196L48,204.2C96,212,192,229,288,269.5C384,310,480,376,576,351.2C672,327,768,212,864,179.7C960,147,1056,196,1152,245C1248,294,1344,343,1440,318.5C1536,294,1632,196,1728,187.8C1824,180,1920,261,2016,310.3C2112,359,2208,376,2304,318.5C2400,261,2496,131,2592,81.7C2688,33,2784,65,2880,122.5C2976,180,3072,261,3168,302.2C3264,343,3360,343,3456,359.3C3552,376,3648,408,3744,367.5C3840,327,3936,212,4032,155.2C4128,98,4224,98,4320,114.3C4416,131,4512,163,4608,204.2C4704,245,4800,294,4896,285.8C4992,278,5088,212,5184,155.2C5280,98,5376,49,5472,65.3C5568,82,5664,163,5760,196C5856,229,5952,212,6048,236.8C6144,261,6240,327,6336,343C6432,359,6528,327,6624,326.7C6720,327,6816,359,6864,375.7L6912,392L6912,490L6864,490C6816,490,6720,490,6624,490C6528,490,6432,490,6336,490C6240,490,6144,490,6048,490C5952,490,5856,490,5760,490C5664,490,5568,490,5472,490C5376,490,5280,490,5184,490C5088,490,4992,490,4896,490C4800,490,4704,490,4608,490C4512,490,4416,490,4320,490C4224,490,4128,490,4032,490C3936,490,3840,490,3744,490C3648,490,3552,490,3456,490C3360,490,3264,490,3168,490C3072,490,2976,490,2880,490C2784,490,2688,490,2592,490C2496,490,2400,490,2304,490C2208,490,2112,490,2016,490C1920,490,1824,490,1728,490C1632,490,1536,490,1440,490C1344,490,1248,490,1152,490C1056,490,960,490,864,490C768,490,672,490,576,490C480,490,384,490,288,490C192,490,96,490,48,490L0,490Z"/><defs><linearGradient id="sw-gradient-2" x1="0" x2="0" y1="1" y2="0"><stop stop-color="rgba(8, 12, 30, 1)" offset="0%"/><stop stop-color="rgba(50, 64, 71, 1)" offset="100%"/></linearGradient></defs><path style="transform:translate(0, 100px); opacity:0.8" fill="url(#sw-gradient-2)" d="M0,196L48,212.3C96,229,192,261,288,277.7C384,294,480,294,576,285.8C672,278,768,261,864,277.7C960,294,1056,343,1152,310.3C1248,278,1344,163,1440,171.5C1536,180,1632,310,1728,334.8C1824,359,1920,278,2016,204.2C2112,131,2208,65,2304,49C2400,33,2496,65,2592,98C2688,131,2784,163,2880,196C2976,229,3072,261,3168,294C3264,327,3360,359,3456,343C3552,327,3648,261,3744,245C3840,229,3936,261,4032,277.7C4128,294,4224,294,4320,269.5C4416,245,4512,196,4608,179.7C4704,163,4800,180,4896,155.2C4992,131,5088,65,5184,32.7C5280,0,5376,0,5472,8.2C5568,16,5664,33,5760,73.5C5856,114,5952,180,6048,187.8C6144,196,6240,147,6336,130.7C6432,114,6528,131,6624,130.7C6720,131,6816,114,6864,106.2L6912,98L6912,490L6864,490C6816,490,6720,490,6624,490C6528,490,6432,490,6336,490C6240,490,6144,490,6048,490C5952,490,5856,490,5760,490C5664,490,5568,490,5472,490C5376,490,5280,490,5184,490C5088,490,4992,490,4896,490C4800,490,4704,490,4608,490C4512,490,4416,490,4320,490C4224,490,4128,490,4032,490C3936,490,3840,490,3744,490C3648,490,3552,490,3456,490C3360,490,3264,490,3168,490C3072,490,2976,490,2880,490C2784,490,2688,490,2592,490C2496,490,2400,490,2304,490C2208,490,2112,490,2016,490C1920,490,1824,490,1728,490C1632,490,1536,490,1440,490C1344,490,1248,490,1152,490C1056,490,960,490,864,490C768,490,672,490,576,490C480,490,384,490,288,490C192,490,96,490,48,490L0,490Z"/><defs><linearGradient id="sw-gradient-3" x1="0" x2="0" y1="1" y2="0"><stop stop-color="rgba(8, 12, 30, 1)" offset="0%"/><stop stop-color="rgba(50, 64, 71, 1)" offset="100%"/></linearGradient></defs><path style="transform:translate(0, 150px); opacity:0.7" fill="url(#sw-gradient-3)" d="M0,294L48,277.7C96,261,192,229,288,220.5C384,212,480,229,576,253.2C672,278,768,310,864,302.2C960,294,1056,245,1152,187.8C1248,131,1344,65,1440,49C1536,33,1632,65,1728,81.7C1824,98,1920,98,2016,122.5C2112,147,2208,196,2304,179.7C2400,163,2496,82,2592,49C2688,16,2784,33,2880,106.2C2976,180,3072,310,3168,343C3264,376,3360,310,3456,302.2C3552,294,3648,343,3744,334.8C3840,327,3936,261,4032,253.2C4128,245,4224,294,4320,326.7C4416,359,4512,376,4608,359.3C4704,343,4800,294,4896,269.5C4992,245,5088,245,5184,236.8C5280,229,5376,212,5472,228.7C5568,245,5664,294,5760,269.5C5856,245,5952,147,6048,114.3C6144,82,6240,114,6336,171.5C6432,229,6528,310,6624,343C6720,376,6816,359,6864,351.2L6912,343L6912,490L6864,490C6816,490,6720,490,6624,490C6528,490,6432,490,6336,490C6240,490,6144,490,6048,490C5952,490,5856,490,5760,490C5664,490,5568,490,5472,490C5376,490,5280,490,5184,490C5088,490,4992,490,4896,490C4800,490,4704,490,4608,490C4512,490,4416,490,4320,490C4224,490,4128,490,4032,490C3936,490,3840,490,3744,490C3648,490,3552,490,3456,490C3360,490,3264,490,3168,490C3072,490,2976,490,2880,490C2784,490,2688,490,2592,490C2496,490,2400,490,2304,490C2208,490,2112,490,2016,490C1920,490,1824,490,1728,490C1632,490,1536,490,1440,490C1344,490,1248,490,1152,490C1056,490,960,490,864,490C768,490,672,490,576,490C480,490,384,490,288,490C192,490,96,490,48,490L0,490Z"/></svg>