<svg id="visual" viewBox="0 0 900 675" width="900" height="675" xmlns="http://www.w3.org/2000/svg" xmlns:xlink="http://www.w3.org/1999/xlink" version="1.1"><g stroke-width="1" stroke-linejoin="bevel"><path d="M445 206L421 0L238 246Z" fill="#eaeaea" stroke="#eaeaea"></path><path d="M421 0L201 0L238 246Z" fill="#d6d6d6" stroke="#d6d6d6"></path><path d="M0 444L240 422L238 246Z" fill="#dbdbdb" stroke="#dbdbdb"></path><path d="M238 246L240 422L445 206Z" fill="#fafafa" stroke="#fafafa"></path><path d="M201 0L0 203L238 246Z" fill="#d1d1d1" stroke="#d1d1d1"></path><path d="M201 0L0 0L0 203Z" fill="#e5e5e5" stroke="#e5e5e5"></path><path d="M698 215L680 0L445 206Z" fill="#ffffff" stroke="#ffffff"></path><path d="M445 206L680 0L421 0Z" fill="#d1d1d1" stroke="#d1d1d1"></path><path d="M240 422L449 483L445 206Z" fill="#d6d6d6" stroke="#d6d6d6"></path><path d="M668 463L698 215L445 206Z" fill="#e0e0e0" stroke="#e0e0e0"></path><path d="M0 203L0 444L238 246Z" fill="#eaeaea" stroke="#eaeaea"></path><path d="M240 422L215 675L449 483Z" fill="#efefef" stroke="#efefef"></path><path d="M449 483L668 463L445 206Z" fill="#efefef" stroke="#efefef"></path><path d="M0 444L215 675L240 422Z" fill="#d1d1d1" stroke="#d1d1d1"></path><path d="M449 483L675 675L668 463Z" fill="#cccccc" stroke="#cccccc"></path><path d="M215 675L431 675L449 483Z" fill="#d6d6d6" stroke="#d6d6d6"></path><path d="M900 429L900 194L698 215Z" fill="#dbdbdb" stroke="#dbdbdb"></path><path d="M698 215L900 194L680 0Z" fill="#e0e0e0" stroke="#e0e0e0"></path><path d="M900 194L900 0L680 0Z" fill="#e5e5e5" stroke="#e5e5e5"></path><path d="M0 444L0 675L215 675Z" fill="#e5e5e5" stroke="#e5e5e5"></path><path d="M668 463L900 429L698 215Z" fill="#f5f5f5" stroke="#f5f5f5"></path><path d="M900 675L900 429L668 463Z" fill="#e0e0e0" stroke="#e0e0e0"></path><path d="M431 675L675 675L449 483Z" fill="#fafafa" stroke="#fafafa"></path><path d="M675 675L900 675L668 463Z" fill="#dbdbdb" stroke="#dbdbdb"></path></g></svg>