<svg id="visual" viewBox="0 0 900 675" width="900" height="675" xmlns="http://www.w3.org/2000/svg" xmlns:xlink="http://www.w3.org/1999/xlink" version="1.1"><g stroke-width="1" stroke-linejoin="bevel"><path d="M323 188L643 0L278 0Z" fill="#bdbab4" stroke="#bdbab4"></path><path d="M323 188L617 184L643 0Z" fill="#ccc9c4" stroke="#ccc9c4"></path><path d="M617 184L900 0L643 0Z" fill="#d6d3cf" stroke="#d6d3cf"></path><path d="M323 188L605 483L617 184Z" fill="#c2bfba" stroke="#c2bfba"></path><path d="M617 184L900 253L900 0Z" fill="#c2bfba" stroke="#c2bfba"></path><path d="M278 0L0 0L323 188Z" fill="#d1cec9" stroke="#d1cec9"></path><path d="M323 188L236 469L605 483Z" fill="#d6d3cf" stroke="#d6d3cf"></path><path d="M0 268L236 469L323 188Z" fill="#dbd9d4" stroke="#dbd9d4"></path><path d="M605 483L900 253L617 184Z" fill="#b3b0aa" stroke="#b3b0aa"></path><path d="M0 0L0 268L323 188Z" fill="#d6d3cf" stroke="#d6d3cf"></path><path d="M0 268L0 459L236 469Z" fill="#b8b5af" stroke="#b8b5af"></path><path d="M605 483L900 488L900 253Z" fill="#dbd9d4" stroke="#dbd9d4"></path><path d="M324 675L543 675L605 483Z" fill="#c7c4bf" stroke="#c7c4bf"></path><path d="M605 483L900 675L900 488Z" fill="#b3b0aa" stroke="#b3b0aa"></path><path d="M324 675L605 483L236 469Z" fill="#c2bfba" stroke="#c2bfba"></path><path d="M0 675L324 675L236 469Z" fill="#dbd9d4" stroke="#dbd9d4"></path><path d="M543 675L900 675L605 483Z" fill="#c7c4bf" stroke="#c7c4bf"></path><path d="M0 459L0 675L236 469Z" fill="#e5e3df" stroke="#e5e3df"></path></g></svg>