<svg id="visual" viewBox="0 0 900 675" width="900" height="675" xmlns="http://www.w3.org/2000/svg" xmlns:xlink="http://www.w3.org/1999/xlink" version="1.1"><g stroke-width="1" stroke-linejoin="bevel"><path d="M332 379L289 165L0 210Z" fill="#ffd96b" stroke="#ffd96b"></path><path d="M0 210L0 511L332 379Z" fill="#ffcb3f" stroke="#ffcb3f"></path><path d="M289 165L239 0L0 210Z" fill="#ffd763" stroke="#ffd763"></path><path d="M239 0L0 0L0 210Z" fill="#ffc21a" stroke="#ffc21a"></path><path d="M0 511L267 675L332 379Z" fill="#ffd763" stroke="#ffd763"></path><path d="M0 511L0 675L267 675Z" fill="#ffc529" stroke="#ffc529"></path><path d="M550 675L619 480L332 379Z" fill="#ffce49" stroke="#ffce49"></path><path d="M332 379L654 196L289 165Z" fill="#ffd152" stroke="#ffd152"></path><path d="M289 165L670 0L239 0Z" fill="#ffd763" stroke="#ffd763"></path><path d="M619 480L654 196L332 379Z" fill="#ffcb3f" stroke="#ffcb3f"></path><path d="M267 675L550 675L332 379Z" fill="#ffd763" stroke="#ffd763"></path><path d="M654 196L670 0L289 165Z" fill="#ffcb3f" stroke="#ffcb3f"></path><path d="M900 478L900 207L654 196Z" fill="#ffbf00" stroke="#ffbf00"></path><path d="M654 196L900 207L670 0Z" fill="#ffd763" stroke="#ffd763"></path><path d="M900 478L654 196L619 480Z" fill="#ffd152" stroke="#ffd152"></path><path d="M900 675L900 478L619 480Z" fill="#ffc835" stroke="#ffc835"></path><path d="M900 207L900 0L670 0Z" fill="#ffd45a" stroke="#ffd45a"></path><path d="M550 675L900 675L619 480Z" fill="#ffdc73" stroke="#ffdc73"></path></g></svg>