<svg id="visual" viewBox="0 0 600 600" width="600" height="600" xmlns="http://www.w3.org/2000/svg" xmlns:xlink="http://www.w3.org/1999/xlink" version="1.1"><g stroke-width="1" stroke-linejoin="bevel"><path d="M259 413L153 267L0 412Z" fill="#04131e" stroke="#04131e"></path><path d="M0 412L0 600L259 413Z" fill="#141e2b" stroke="#141e2b"></path><path d="M0 600L260 600L259 413Z" fill="#1a2330" stroke="#1a2330"></path><path d="M153 267L0 141L0 412Z" fill="#141e2b" stroke="#141e2b"></path><path d="M259 413L459 338L153 267Z" fill="#1d2532" stroke="#1d2532"></path><path d="M153 267L168 0L0 141Z" fill="#141e2b" stroke="#141e2b"></path><path d="M482 600L459 338L259 413Z" fill="#00101c" stroke="#00101c"></path><path d="M429 132L168 0L153 267Z" fill="#17212d" stroke="#17212d"></path><path d="M459 338L429 132L153 267Z" fill="#1a2330" stroke="#1a2330"></path><path d="M260 600L482 600L259 413Z" fill="#141e2b" stroke="#141e2b"></path><path d="M168 0L0 0L0 141Z" fill="#081521" stroke="#081521"></path><path d="M482 600L600 336L459 338Z" fill="#081521" stroke="#081521"></path><path d="M459 338L600 238L429 132Z" fill="#141e2b" stroke="#141e2b"></path><path d="M600 336L600 238L459 338Z" fill="#1a2330" stroke="#1a2330"></path><path d="M600 0L438 0L429 132Z" fill="#04131e" stroke="#04131e"></path><path d="M429 132L438 0L168 0Z" fill="#00101c" stroke="#00101c"></path><path d="M482 600L600 600L600 336Z" fill="#04131e" stroke="#04131e"></path><path d="M600 238L600 0L429 132Z" fill="#081521" stroke="#081521"></path></g></svg>