<svg id="visual" viewBox="0 0 600 600" width="600" height="600" xmlns="http://www.w3.org/2000/svg" xmlns:xlink="http://www.w3.org/1999/xlink" version="1.1"><g stroke-width="1" stroke-linejoin="bevel"><path d="M228 280L221 398L458 447Z" fill="#141e2b" stroke="#141e2b"></path><path d="M458 447L482 224L228 280Z" fill="#04131e" stroke="#04131e"></path><path d="M458 447L600 376L482 224Z" fill="#00101c" stroke="#00101c"></path><path d="M205 600L447 600L458 447Z" fill="#1d2532" stroke="#1d2532"></path><path d="M458 447L600 600L600 376Z" fill="#0f1a26" stroke="#0f1a26"></path><path d="M600 376L600 224L482 224Z" fill="#081521" stroke="#081521"></path><path d="M0 480L205 600L221 398Z" fill="#081521" stroke="#081521"></path><path d="M221 398L205 600L458 447Z" fill="#141e2b" stroke="#141e2b"></path><path d="M600 0L372 0L482 224Z" fill="#111c28" stroke="#111c28"></path><path d="M482 224L372 0L228 280Z" fill="#1a2330" stroke="#1a2330"></path><path d="M447 600L600 600L458 447Z" fill="#0c1823" stroke="#0c1823"></path><path d="M372 0L228 0L228 280Z" fill="#1d2532" stroke="#1d2532"></path><path d="M228 280L0 480L221 398Z" fill="#17212d" stroke="#17212d"></path><path d="M0 152L0 480L228 280Z" fill="#141e2b" stroke="#141e2b"></path><path d="M228 0L0 152L228 280Z" fill="#04131e" stroke="#04131e"></path><path d="M600 224L600 0L482 224Z" fill="#04131e" stroke="#04131e"></path><path d="M0 480L0 600L205 600Z" fill="#1d2532" stroke="#1d2532"></path><path d="M228 0L0 0L0 152Z" fill="#1d2532" stroke="#1d2532"></path></g></svg>